<?xml version="1.0" encoding="UTF-8" standalone="no" ?>
<!DOCTYPE svg PUBLIC "-//W3C//DTD SVG 1.1//EN" "http://www.w3.org/Graphics/SVG/1.1/DTD/svg11.dtd">
<svg xmlns="http://www.w3.org/2000/svg" xmlns:xlink="http://www.w3.org/1999/xlink" version="1.1" width="200" height="200" viewBox="0 0 200 200" xml:space="preserve">
<desc>Created with Fabric.js 5.2.4</desc>
<defs>
</defs>
<rect x="0" y="0" width="100%" height="100%" fill="transparent"></rect>
<g transform="matrix(1 0 0 1 100 100)" id="4beb61fb-078a-48ce-ac16-2d4c509ed184"  >
<rect style="stroke: none; stroke-width: 1; stroke-dasharray: none; stroke-linecap: butt; stroke-dashoffset: 0; stroke-linejoin: miter; stroke-miterlimit: 4; fill: rgb(255,255,255); fill-rule: nonzero; opacity: 1; visibility: hidden;" vector-effect="non-scaling-stroke"  x="-100" y="-100" rx="0" ry="0" width="200" height="200" />
</g>
<g transform="matrix(0 0 0 0 0 0)" id="dab8b13a-182a-4314-9ff2-5ea54eb7759d"  >
</g>
<g transform="matrix(0 0.12 -0.12 0 92.8 100)"  >
<g style="" vector-effect="non-scaling-stroke"   >
		<g transform="matrix(1 0 0 1 0.1 0.03)"  >
<polygon style="stroke: none; stroke-width: 1; stroke-dasharray: none; stroke-linecap: butt; stroke-dashoffset: 0; stroke-linejoin: miter; stroke-miterlimit: 4; fill: rgb(255,255,255); fill-rule: nonzero; opacity: 1; visibility: hidden;" vector-effect="non-scaling-stroke"  points="43.65,-41.5 39.95,-37.8 53.95,-23.8 3.85,-23.8 -1.35,-23.8 -1.35,10.2 -27.35,10.2 -27.35,36.3 -43.05,36.3 -63.85,36.3 -63.85,41.5 -37.85,41.5 -22.15,41.5 -22.15,15.4 3.85,15.4 3.85,-18.6 53.95,-18.6 39.95,-4.6 43.65,-0.9 63.85,-21.2 " />
</g>
		<g transform="matrix(1 0 0 1 0.1 0.03)"  >
<path style="stroke: none; stroke-width: 1; stroke-dasharray: none; stroke-linecap: butt; stroke-dashoffset: 0; stroke-linejoin: miter; stroke-miterlimit: 4; fill: rgb(255,255,255); fill-rule: nonzero; opacity: 1; visibility: hidden;" vector-effect="non-scaling-stroke"  transform=" translate(-64.05, -64)" d="M 109.5 51 L 105.1 54 L 117.6 65.3 L 77.8 65.3 L 67.8 65.3 L 67.8 14.6 L 81.3 28 L 84.8 24.5 L 65.3 5 L 45.8 24.5 L 49.3 28.1 L 62.8 14.600000000000001 L 62.8 65.30000000000001 L 52.8 65.30000000000001 L 9.1 65.30000000000001 L 22.799999999999997 53.20000000000001 L 18.499999999999996 50.30000000000001 L 0.2 66.6 L 18.4 82.89999999999999 L 22.4 79.19999999999999 L 12 70.3 L 50.3 70.3 L 62.8 70.3 L 62.8 123 L 67.8 123 L 67.8 70.3 L 80.39999999999999 70.3 L 117.5 70.3 L 105.4 80.8 L 109.5 84.6 L 127.9 67.8 L 109.5 51 z M 7.6 66.6 L 7.6 66.6 L 7.6 66.6 L 7.6 66.6 z" stroke-linecap="round" />
</g>
		<g transform="matrix(1 0 0 1 0.1 0.03)"  >
<path style="stroke: none; stroke-width: 1; stroke-dasharray: none; stroke-linecap: butt; stroke-dashoffset: 0; stroke-linejoin: miter; stroke-miterlimit: 4; fill: rgb(255,255,255); fill-rule: nonzero; opacity: 1; visibility: hidden;" vector-effect="non-scaling-stroke"  transform=" translate(-64.05, -64)" d="M 64.1 121.6 L 45.599999999999994 103.1 L 62.199999999999996 102.69999999999999 L 62.3 98.19999999999999 L 41.9 98.69999999999999 L 41.9 98.69999999999999 L 37.4 98.79999999999998 L 37.3 103.29999999999998 L 37.3 103.29999999999998 L 36.8 123.69999999999999 L 41.3 123.6 L 41.699999999999996 105.6 L 64.1 128 L 89.1 102.9 L 85.89999999999999 99.7 L 64.1 121.6 z M 108.3 83.7 L 127.9 64 L 104.9 40.9 L 101.7 44.1 L 121.6 64 L 105.19999999999999 80.5 L 104.79999999999998 63.2 L 100.29999999999998 63.1 L 100.79999999999998 83.5 L 100.79999999999998 83.5 L 100.89999999999998 88 L 105.39999999999998 88.1 L 105.39999999999998 88.1 L 125.79999999999998 88.6 L 125.69999999999999 84.1 L 108.3 83.7 z M 85.2 21.2 L 64.1 0 L 41.7 22.4 L 44.900000000000006 25.599999999999998 L 44.400000000000006 26.099999999999998 L 64.1 6.4 L 82.19999999999999 24.6 L 64.9 24.6 L 64.9 29.1 L 85.2 29.1 L 89.7 29.1 L 89.7 24.6 L 89.7 4.2 L 85.2 4.2 L 85.2 21.2 z M 32 40.5 L 31.9 36 L 7.1 35.1 L 7.1 40 L 23.799999999999997 40.4 L 0.2 64 L 24.2 88 L 27.4 84.8 L 6.6 64 L 27.6 43 L 28 60.9 L 32.5 61 L 32 40.5 L 32 40.5 z" stroke-linecap="round" />
</g>
		<g transform="matrix(1 0 0 1 0.1 0.03)"  >
<polygon style="stroke: none; stroke-width: 1; stroke-dasharray: none; stroke-linecap: butt; stroke-dashoffset: 0; stroke-linejoin: miter; stroke-miterlimit: 4; fill: rgb(255,255,255); fill-rule: nonzero; opacity: 1; visibility: hidden;" vector-effect="non-scaling-stroke"  points="31.25,-43.2 -26.35,-43.2 -9.85,-59.8 -14.05,-64 -32.95,-45 -32.95,-45 -37.15,-40.7 -34.15,-37.7 -34.15,-37.2 -33.65,-37.2 -14.05,-17.5 -9.85,-21.7 -25.25,-37.2 31.25,-37.2 31.25,64 37.15,64 37.15,-43.2 " />
</g>
		<g transform="matrix(1 0 0 1 0.15 0.03)"  >
<polygon style="stroke: none; stroke-width: 1; stroke-dasharray: none; stroke-linecap: butt; stroke-dashoffset: 0; stroke-linejoin: miter; stroke-miterlimit: 4; fill: rgb(255,255,255); fill-rule: nonzero; opacity: 1; visibility: hidden;" vector-effect="non-scaling-stroke"  points="14.1,-64 9.9,-59.8 25.9,-43.7 -31.5,-43.7 -37.4,-43.7 -37.4,64 -31.5,64 -31.5,-37.7 25.9,-37.7 9.9,-21.7 14.1,-17.5 37.4,-40.7 " />
</g>
		<g transform="matrix(1 0 0 1 0.1 0.03)"  >
<polygon style="stroke: none; stroke-width: 1; stroke-dasharray: none; stroke-linecap: butt; stroke-dashoffset: 0; stroke-linejoin: miter; stroke-miterlimit: 4; fill: rgb(255,255,255); fill-rule: nonzero; opacity: 1; visibility: hidden;" vector-effect="non-scaling-stroke"  points="24.15,-15.6 19.95,-11.4 35.85,4.5 -21.15,4.5 -21.15,-52.6 -5.25,-36.7 -1.05,-40.9 -24.15,-64 -47.25,-40.9 -43.05,-36.6 -27.05,-52.6 -27.05,64 -21.15,64 -21.15,10.5 35.85,10.5 19.95,26.4 24.15,30.6 47.25,7.5 " />
</g>
		<g transform="matrix(1 0 0 1 -0.6 0.03)"  >
<path style="stroke: none; stroke-width: 1; stroke-dasharray: none; stroke-linecap: butt; stroke-dashoffset: 0; stroke-linejoin: miter; stroke-miterlimit: 4; fill: rgb(255,255,255); fill-rule: nonzero; opacity: 1; visibility: hidden;" vector-effect="non-scaling-stroke"  transform=" translate(-63.35, -64)" d="M 91.6 88.8 L 126.4 54 L 121.9 49.5 L 93.7 77.7 L 93.7 54.6 C 93.7 28.700000000000003 72.80000000000001 7.800000000000004 47 7.800000000000004 C 21.2 7.800000000000004 0.29999999999999716 28.800000000000004 0.29999999999999716 54.6 L 0.29999999999999716 120.19999999999999 L 6.499999999999997 120.19999999999999 L 6.499999999999997 54.6 C 6.4 32.2 24.6 14 46.9 14 C 69.3 14 87.4 32.2 87.4 54.6 L 87.4 77.5 L 59 49.2 L 54.5 53.7 L 86.1 85.30000000000001 L 86.1 85.30000000000001 L 90.6 89.80000000000001 L 90.6 89.80000000000001 L 90.6 89.80000000000001 L 91.6 88.8 z" stroke-linecap="round" />
</g>
		<g transform="matrix(1 0 0 1 -0.4 0.03)"  >
<path style="stroke: none; stroke-width: 1; stroke-dasharray: none; stroke-linecap: butt; stroke-dashoffset: 0; stroke-linejoin: miter; stroke-miterlimit: 4; fill: rgb(255,255,255); fill-rule: nonzero; opacity: 1; visibility: hidden;" vector-effect="non-scaling-stroke"  transform=" translate(-63.55, -64)" d="M 122 24 L 99.6 0 L 77.3 24 L 82.39999999999999 29.3 L 96.6 13.2 C 96.6 18.2 96.6 27 96.6 42.4 C 96.6 56.099999999999994 80.6 65.1 63.599999999999994 74.8 C 46.5 65 30.6 56.3 30.6 42.3 C 30.6 27.299999999999997 30.6 18.599999999999998 30.6 13.499999999999996 L 44.400000000000006 29.299999999999997 L 49.400000000000006 23.999999999999996 L 27.3 0 L 5.1 24 L 9 29.7 L 24 13.4 C 24 18.5 24 27.200000000000003 24 42.3 C 24 59.3 40.9 69.4 59 79.8 C 59.6 80.1 60.2 80.5 60.9 80.89999999999999 L 60.9 128 L 67.5 128 L 67.5 79.7 C 68.3 79.3 69.1 78.8 69.8 78.4 C 69.8 78.4 69.8 78.4 69.8 78.4 C 69.8 78.4 69.8 78.4 69.8 78.4 C 87 68.60000000000001 103.3 58.60000000000001 103.3 42.50000000000001 C 103.3 27.500000000000007 103.3 18.800000000000008 103.3 13.700000000000006 L 118 29.7 L 122 24 z" stroke-linecap="round" />
</g>
		<g transform="matrix(1 0 0 1 0 0.02)"  >
<path style="stroke: none; stroke-width: 1; stroke-dasharray: none; stroke-linecap: butt; stroke-dashoffset: 0; stroke-linejoin: miter; stroke-miterlimit: 4; fill: rgb(255,255,255); fill-rule: nonzero; opacity: 1; visibility: hidden;" vector-effect="non-scaling-stroke"  transform=" translate(-63.95, -64)" d="M 33.8 53.3 L 30 49.5 L -0.1 79.7 L -0.1 79.7 L -0.1 79.7 L 30 109.9 L 33.8 106.10000000000001 L 10 82.3 L 73.2 82.3 L 73.2 77.1 L 10 77.1 L 33.8 53.3 z M 127.9 48.2 L 97.8 18.1 L 94 21.900000000000002 L 117.8 45.7 L 54.8 45.7 L 54.8 50.900000000000006 L 117.8 50.900000000000006 L 94.1 74.8 L 97.89999999999999 78.6 L 128 48.49999999999999 L 128 48.2 L 127.9 48.2 z" stroke-linecap="round" />
</g>
		<g transform="matrix(1 0 0 1 0.15 0.03)"  >
<path style="stroke: none; stroke-width: 1; stroke-dasharray: none; stroke-linecap: butt; stroke-dashoffset: 0; stroke-linejoin: miter; stroke-miterlimit: 4; fill: rgb(255,255,255); fill-rule: nonzero; opacity: 1; visibility: hidden;" vector-effect="non-scaling-stroke"  transform=" translate(-64.1, -64)" d="M 110.5 25.6 L 106.4 28.400000000000002 L 118.2 39.1 L 73.5 39.1 L 61.7 50.9 L 49.9 39.1 L 8.6 39.1 L 21.5 27.6 L 17.4 24.900000000000002 L 0.2 40.3 L 17.4 55.699999999999996 L 21.2 52.199999999999996 L 11.299999999999999 43.8 L 47.5 43.8 L 59.3 55.699999999999996 L 59.3 103.1 L 64 103.1 L 64 55.7 L 76 43.8 L 118.1 43.8 L 106.69999999999999 53.699999999999996 L 110.6 57.3 L 128 41.4 L 110.5 25.6 z M 7.2 40.3 L 7.2 40.3 L 7.2 40.3 L 7.2 40.3 z" stroke-linecap="round" />
</g>
		<g transform="matrix(1 0 0 1 0.1 -1.27)"  >
<path style="stroke: none; stroke-width: 1; stroke-dasharray: none; stroke-linecap: butt; stroke-dashoffset: 0; stroke-linejoin: miter; stroke-miterlimit: 4; fill: rgb(255,255,255); fill-rule: nonzero; opacity: 1; visibility: hidden;" vector-effect="non-scaling-stroke"  transform=" translate(-64.05, -62.7)" d="M 91.5 40.3 L 126.6 5.099999999999994 L 121.5 0 L 86.9 34.7 L 85.8 5.1 L 78.1 2.4999999999999996 L 80 47.5 L 124.1 48.7 L 121.5 41 L 91.5 40.3 z M 3.5 77.3 L 6.1 85 L 35.3 86.5 L 1.5 120.3 L 6.6 125.39999999999999 L 40.9 91 L 41.9 120.7 L 49.5 123.3 L 47.9 79.6 L 3.5 77.3 z" stroke-linecap="round" />
</g>
		<g transform="matrix(1 0 0 1 0.2 1.28)"  >
<path style="stroke: none; stroke-width: 1; stroke-dasharray: none; stroke-linecap: butt; stroke-dashoffset: 0; stroke-linejoin: miter; stroke-miterlimit: 4; fill: rgb(255,255,255); fill-rule: nonzero; opacity: 1; visibility: hidden;" vector-effect="non-scaling-stroke"  transform=" translate(-64.15, -65.25)" d="M 92 88.2 L 121.5 87 L 124.1 79.3 L 79.3 81.2 L 78.2 125.4 L 85.9 122.80000000000001 L 86.60000000000001 92.70000000000002 L 121.70000000000002 127.90000000000002 L 126.80000000000001 122.80000000000003 L 92 88.2 z M 40.4 36.4 L 6.6 2.6 L 1.5 7.7 L 35.8 42 L 6.1 43 L 3.4999999999999996 50.6 L 47.1 49 L 49.5 4.600000000000001 L 41.9 7.200000000000001 L 40.4 36.4 z" stroke-linecap="round" />
</g>
		<g transform="matrix(1 0 0 1 1.9 0.12)"  >
<path style="stroke: none; stroke-width: 1; stroke-dasharray: none; stroke-linecap: butt; stroke-dashoffset: 0; stroke-linejoin: miter; stroke-miterlimit: 4; fill: rgb(255,255,255); fill-rule: nonzero; opacity: 1; visibility: hidden;" vector-effect="non-scaling-stroke"  transform=" translate(-65.85, -64.1)" d="M 102.6 80.6 L 115.5 91.89999999999999 C 111 91.89999999999999 103.6 91.89999999999999 91.2 91.89999999999999 C 79.4 91.89999999999999 71.6 78.19999999999999 63.1 63.69999999999999 C 71.6 49.09999999999999 79.4 35.39999999999999 91.2 35.39999999999999 C 104.10000000000001 35.39999999999999 111.7 35.39999999999999 116.1 35.39999999999999 L 102.5 47.19999999999999 L 107.1 51.499999999999986 L 127.8 32.59999999999999 L 107 13.599999999999987 L 102.1 16.999999999999986 L 116.19999999999999 29.799999999999986 C 111.79999999999998 29.799999999999986 104.29999999999998 29.799999999999986 91.19999999999999 29.799999999999986 C 77.19999999999999 29.799999999999986 68.6 43.899999999999984 59.999999999999986 58.59999999999999 C 51.29999999999998 43.79999999999998 41.29999999999998 29.799999999999986 25.399999999999984 29.799999999999986 C 13.999999999999984 29.799999999999986 7.499999999999986 29.799999999999986 3.8999999999999844 29.799999999999986 L 3.8999999999999844 35.499999999999986 C 7.499999999999984 35.499999999999986 13.899999999999984 35.499999999999986 24.999999999999986 35.499999999999986 C 39.499999999999986 35.499999999999986 48.499999999999986 49.19999999999999 56.999999999999986 63.79999999999998 C 48.499999999999986 78.29999999999998 39.499999999999986 91.99999999999999 24.999999999999986 91.99999999999999 C 13.899999999999986 91.99999999999999 7.399999999999984 91.99999999999999 3.8999999999999844 91.99999999999999 L 3.8999999999999844 97.69999999999999 C 7.499999999999984 97.69999999999999 13.999999999999984 97.69999999999999 25.399999999999984 97.69999999999999 C 41.29999999999998 97.69999999999999 51.29999999999998 83.69999999999999 59.999999999999986 68.99999999999999 C 68.49999999999999 83.69999999999999 77.1 97.69999999999999 91.1 97.69999999999999 C 105 97.69999999999999 112.69999999999999 97.69999999999999 116.89999999999999 97.69999999999999 L 102.1 111.19999999999999 L 107 114.6 L 127.8 95.5 L 107.1 76.4 L 102.6 80.6 z" stroke-linecap="round" />
</g>
		<g transform="matrix(1 0 0 1 0.2 0.02)"  >
<path style="stroke: none; stroke-width: 1; stroke-dasharray: none; stroke-linecap: butt; stroke-dashoffset: 0; stroke-linejoin: miter; stroke-miterlimit: 4; fill: rgb(255,255,255); fill-rule: nonzero; opacity: 1; visibility: hidden;" vector-effect="non-scaling-stroke"  transform=" translate(-64.15, -64)" d="M 106.7 97.2 C 106.7 102.4 102.5 106.7 97.2 106.7 L 30.9 106.7 C 25.7 106.7 21.4 102.5 21.4 97.2 L 21.4 63.4 L 33.099999999999994 75.1 L 36.599999999999994 71.6 L 19.3 54.3 L 19.3 54.3 L 19.3 54.3 L 16.8 56.9 L 16.8 56.9 L 16.8 56.9 L 1.6 72.1 L 5.1 75.6 L 16.7 64 L 16.7 97.2 C 16.7 105.10000000000001 23.1 111.4 30.9 111.4 L 97.19999999999999 111.4 C 104.99999999999999 111.4 111.39999999999999 105 111.39999999999999 97.2 L 111.39999999999999 80.6 L 106.69999999999999 80.6 L 106.69999999999999 97.2 z M 126.7 54.3 L 123.2 50.8 L 111.4 62.599999999999994 L 111.4 30.8 C 111.4 22.9 105 16.6 97.2 16.6 L 30.9 16.6 C 23.099999999999998 16.6 16.7 23 16.7 30.8 L 16.7 45 L 21.4 45 L 21.4 30.8 C 21.4 25.6 25.599999999999998 21.3 30.9 21.3 L 97.19999999999999 21.3 C 102.39999999999999 21.3 106.69999999999999 25.5 106.69999999999999 30.8 L 106.69999999999999 62.6 L 94.9 50.8 L 91.30000000000001 54.4 L 105.50000000000001 68.6 L 105.50000000000001 68.6 L 109.00000000000001 72.1 L 109.00000000000001 72.1 L 109.00000000000001 72.1 L 112.60000000000001 68.5 L 112.60000000000001 68.5 L 126.7 54.3 z" stroke-linecap="round" />
</g>
		<g transform="matrix(1 0 0 1 -1.4 -0.47)"  >
<path style="stroke: none; stroke-width: 1; stroke-dasharray: none; stroke-linecap: butt; stroke-dashoffset: 0; stroke-linejoin: miter; stroke-miterlimit: 4; fill: rgb(255,255,255); fill-rule: nonzero; opacity: 1;" vector-effect="non-scaling-stroke"  transform=" translate(-62.55, -63.5)" d="M 121.7 90.6 L 85.9 54.7 L 81.4 59.2 L 109.5 87.4 L 50 87.4 C 27.6 87.4 9.5 69.2 9.5 46.800000000000004 C 9.5 24.400000000000006 27.7 6.2 50 6.2 L 50 0 C 24.2 0 3.3 21 3.3 46.8 C 3.3 72.6 24.2 93.6 50 93.6 L 110 93.6 L 81.2 122.5 L 85.7 127 L 121.80000000000001 90.8 L 121.70000000000002 90.7 L 121.7 90.6 z" stroke-linecap="round" />
</g>
		<g transform="matrix(1 0 0 1 1.2 -0.47)"  >
<path style="stroke: none; stroke-width: 1; stroke-dasharray: none; stroke-linecap: butt; stroke-dashoffset: 0; stroke-linejoin: miter; stroke-miterlimit: 4; fill: rgb(255,255,255); fill-rule: nonzero; opacity: 1; visibility: hidden;" vector-effect="non-scaling-stroke"  transform=" translate(-65.15, -63.5)" d="M 78.1 0 L 78.1 6.2 C 100.5 6.2 118.6 24.4 118.6 46.800000000000004 C 118.6 69.20000000000002 100.5 87.4 78.1 87.4 L 17.9 87.4 L 45.8 59.400000000000006 L 41.3 54.900000000000006 L 5.5 90.8 L 5.5 90.8 L 5.5 90.8 L 41.5 127 L 46 122.5 L 17.2 93.6 L 78.1 93.6 C 103.89999999999999 93.6 124.8 72.6 124.8 46.8 C 124.8 21 103.9 0 78.1 0 z" stroke-linecap="round" />
</g>
		<g transform="matrix(1 0 0 1 36.6 -29.32)"  >
<polygon style="stroke: none; stroke-width: 1; stroke-dasharray: none; stroke-linecap: butt; stroke-dashoffset: 0; stroke-linejoin: miter; stroke-miterlimit: 4; fill: rgb(255,255,255); fill-rule: nonzero; opacity: 1; visibility: hidden;" vector-effect="non-scaling-stroke"  points="25.45,-19.45 20.45,-20.75 11.05,14.45 -24.15,4.95 -25.45,10.05 14.65,20.75 14.65,20.75 14.75,20.75 " />
</g>
		<g transform="matrix(1 0 0 1 -36.25 23.72)"  >
<polygon style="stroke: none; stroke-width: 1; stroke-dasharray: none; stroke-linecap: butt; stroke-dashoffset: 0; stroke-linejoin: miter; stroke-miterlimit: 4; fill: rgb(255,255,255); fill-rule: nonzero; opacity: 1; visibility: hidden;" vector-effect="non-scaling-stroke"  points="26.9,-7.5 -8.9,-19.3 -8.9,-19.3 -13.9,-20.9 -26.9,19.2 -21.9,20.9 -10.6,-14.2 25.3,-2.5 " />
</g>
		<g transform="matrix(1 0 0 1 1 0.28)"  >
<path style="stroke: none; stroke-width: 1; stroke-dasharray: none; stroke-linecap: butt; stroke-dashoffset: 0; stroke-linejoin: miter; stroke-miterlimit: 4; fill: rgb(255,255,255); fill-rule: nonzero; opacity: 1; visibility: hidden;" vector-effect="non-scaling-stroke"  transform=" translate(-64.95, -64.25)" d="M 65.2 18.3 C 87 18.3 105.30000000000001 33.6 109.9 54 L 115.10000000000001 54 C 110.4 30.7 89.80000000000001 13.200000000000003 65.20000000000002 13.200000000000003 C 41.500000000000014 13.200000000000003 21.500000000000014 29.500000000000004 15.90000000000002 51.5 L 21.20000000000002 51.5 C 26.7 32.3 44.3 18.3 65.2 18.3 z M 65.2 110.2 C 42.5 110.2 23.6 93.6 20 71.9 L 14.8 71.9 C 18.5 96.5 39.6 115.30000000000001 65.2 115.30000000000001 C 88 115.30000000000001 107.30000000000001 100.30000000000001 113.80000000000001 79.60000000000001 L 108.4 79.60000000000001 C 102.2 97.4 85.2 110.2 65.2 110.2 z" stroke-linecap="round" />
</g>
		<g transform="matrix(1 0 0 1 0.1 0.03)"  >
<path style="stroke: none; stroke-width: 1; stroke-dasharray: none; stroke-linecap: butt; stroke-dashoffset: 0; stroke-linejoin: miter; stroke-miterlimit: 4; fill: rgb(255,255,255); fill-rule: nonzero; opacity: 1; visibility: hidden;" vector-effect="non-scaling-stroke"  transform=" translate(-64.05, -64)" d="M 120.4 115.1 L 74.7 69.3 L 69.4 74.6 L 115.10000000000001 120.39999999999999 L 86.6 120.39999999999999 L 86.6 127.89999999999999 L 120.39999999999999 127.89999999999999 L 127.89999999999999 127.89999999999999 L 127.89999999999999 120.39999999999999 L 127.89999999999999 86.6 L 120.39999999999999 86.6 L 120.39999999999999 115.1 z M 45.3 7.5 L 45.3 0 L 7.7 0 L 0.2 0 L 0.2 7.5 L 0.2 41.4 L 7.7 41.4 L 7.7 12.9 L 53.400000000000006 58.699999999999996 L 58.7 53.4 L 13 7.5 L 45.3 7.5 z M 53.4 69.3 L 7.7 115.1 L 7.7 86.6 L 0.2 86.6 L 0.2 120.5 L 0.2 128 L 7.7 128 L 45.300000000000004 128 L 45.300000000000004 120.5 L 13 120.5 L 58.7 74.7 L 53.4 69.3 z M 120.4 0 L 86.6 0 L 86.5 7.6 L 115.1 7.6 L 69.4 53.4 L 74.7 58.699999999999996 L 120.4 12.899999999999999 L 120.4 41.5 L 127.9 41.5 L 127.9 7.5 L 127.9 0 L 120.4 0 z" stroke-linecap="round" />
</g>
		<g transform="matrix(1 0 0 1 0.1 -0.02)"  >
<path style="stroke: none; stroke-width: 1; stroke-dasharray: none; stroke-linecap: butt; stroke-dashoffset: 0; stroke-linejoin: miter; stroke-miterlimit: 4; fill: rgb(255,255,255); fill-rule: nonzero; opacity: 1; visibility: hidden;" vector-effect="non-scaling-stroke"  transform=" translate(-64.05, -63.95)" d="M 120.4 82.8 L 120.4 115.1 L 74.7 69.3 L 69.4 74.6 L 115.10000000000001 120.39999999999999 L 86.6 120.39999999999999 L 86.6 127.89999999999999 L 120.39999999999999 127.89999999999999 L 127.89999999999999 127.89999999999999 L 127.89999999999999 120.39999999999999 L 127.89999999999999 82.8 L 120.4 82.8 z M 41.5 7.5 L 41.5 0 L 7.7 0 L 0.2 0 L 0.2 7.5 L 0.2 41.4 L 7.7 41.5 L 7.7 12.899999999999999 L 53.400000000000006 58.699999999999996 L 58.7 53.4 L 13 7.5 L 41.5 7.5 z" stroke-linecap="round" />
</g>
		<g transform="matrix(1 0 0 1 0.1 0.03)"  >
<path style="stroke: none; stroke-width: 1; stroke-dasharray: none; stroke-linecap: butt; stroke-dashoffset: 0; stroke-linejoin: miter; stroke-miterlimit: 4; fill: rgb(255,255,255); fill-rule: nonzero; opacity: 1; visibility: hidden;" vector-effect="non-scaling-stroke"  transform=" translate(-64.05, -64)" d="M 53.4 69.3 L 7.7 115.1 L 7.7 86.6 L 0.2 86.6 L 0.2 120.5 L 0.2 128 L 7.7 128 L 45.300000000000004 128 L 45.300000000000004 120.5 L 13 120.5 L 58.7 74.7 L 53.4 69.3 z M 120.4 0 L 86.6 0 L 86.5 7.6 L 115.1 7.6 L 69.4 53.4 L 74.7 58.699999999999996 L 120.4 12.899999999999999 L 120.4 41.5 L 127.9 41.5 L 127.9 7.5 L 127.9 0 L 120.4 0 z" stroke-linecap="round" />
</g>
		<g transform="matrix(1 0 0 1 0.1 0.03)"  >
<path style="stroke: none; stroke-width: 1; stroke-dasharray: none; stroke-linecap: butt; stroke-dashoffset: 0; stroke-linejoin: miter; stroke-miterlimit: 4; fill: rgb(255,255,255); fill-rule: nonzero; opacity: 1; visibility: hidden;" vector-effect="non-scaling-stroke"  transform=" translate(-64.05, -64)" d="M 107.3 43.3 L 103.5 47.099999999999994 L 117.8 61.39999999999999 L 72 61.39999999999999 L 72 66.69999999999999 L 117.7 66.69999999999999 L 103.4 80.99999999999999 L 107.2 84.79999999999998 L 127.9 64 L 107.3 43.3 z M 56.1 66.7 L 56.1 61.400000000000006 L 10.4 61.400000000000006 L 26.5 45.2 L 22.7 41.400000000000006 L 0.2 64 L 20.9 84.7 L 24.7 80.9 L 10.4 66.7 L 56.1 66.7 z M 66.7 117.8 L 66.7 72 L 61.400000000000006 72 L 61.400000000000006 117.8 L 47.10000000000001 103.5 L 43.30000000000001 107.3 L 64.1 128 L 86.6 105.4 L 82.8 101.60000000000001 L 66.7 117.8 z M 61.4 10.2 L 61.4 56 L 66.7 56 L 66.7 10.2 L 81 24.5 L 84.8 20.7 L 64.1 0 L 43.4 20.7 L 47.1 24.5 L 61.4 10.2 z" stroke-linecap="round" />
</g>
		<g transform="matrix(1 0 0 1 0.8 0.02)"  >
<path style="stroke: none; stroke-width: 1; stroke-dasharray: none; stroke-linecap: butt; stroke-dashoffset: 0; stroke-linejoin: miter; stroke-miterlimit: 4; fill: rgb(255,255,255); fill-rule: nonzero; opacity: 1; visibility: hidden;" vector-effect="non-scaling-stroke"  transform=" translate(-64.75, -64)" d="M 70.7 7.1 C 45 7.1 23.2 24 16 47.2 L 7.2 14.5 L 1.5 16 L 13.6 60.8 L 13.7 60.8 L 13.7 60.8 L 58.8 48.8 L 57.3 43.199999999999996 L 20.299999999999997 53 C 25.299999999999997 30 46 12.700000000000003 70.6 12.700000000000003 C 99.1 12.700000000000003 122.1 35.6 122.1 63.900000000000006 C 122.1 92.2 99 115.10000000000001 70.6 115.10000000000001 C 52.99999999999999 115.10000000000001 37.49999999999999 106.30000000000001 28.199999999999996 93 C 27.899999999999995 92.6 27.299999999999997 91.7 27.299999999999997 91.7 L 21.699999999999996 93.5 C 21.699999999999996 93.5 22.199999999999996 94.3 22.499999999999996 94.8 C 32.699999999999996 110.5 50.39999999999999 120.9 70.7 120.9 C 102.30000000000001 120.9 128 95.4 128 64 C 127.9 32.6 102.3 7.1 70.7 7.1 z" stroke-linecap="round" />
</g>
		<g transform="matrix(1 0 0 1 -0.65 0.02)"  >
<path style="stroke: none; stroke-width: 1; stroke-dasharray: none; stroke-linecap: butt; stroke-dashoffset: 0; stroke-linejoin: miter; stroke-miterlimit: 4; fill: rgb(255,255,255); fill-rule: nonzero; opacity: 1; visibility: hidden;" vector-effect="non-scaling-stroke"  transform=" translate(-63.3, -64)" d="M 69.2 47.7 L 114.30000000000001 59.800000000000004 L 115.80000000000001 53.1 L 126.4 13.5 L 120.80000000000001 12 L 111.80000000000001 45.8 C 104.20000000000002 22.999999999999996 82.80000000000001 6.599999999999994 57.500000000000014 6.599999999999994 C 25.8 6.6 0.2 32.3 0.2 64 C 0.2 95.7 25.8 121.4 57.5 121.4 C 77.7 121.4 95.5 110.9 105.6 95.10000000000001 C 105.89999999999999 94.7 106.39999999999999 93.80000000000001 106.39999999999999 93.80000000000001 L 100.8 92.00000000000001 C 100.8 92.00000000000001 100.2 92.90000000000002 99.89999999999999 93.30000000000001 C 90.6 106.80000000000001 75.1 115.60000000000001 57.49999999999999 115.60000000000001 C 29 115.6 5.9 92.5 5.9 64 C 5.9 35.5 29 12.399999999999999 57.4 12.399999999999999 C 81.3 12.399999999999999 101.4 28.7 107.19999999999999 50.8 L 70.69999999999999 41 L 69.2 47.7 z" stroke-linecap="round" />
</g>
		<g transform="matrix(1 0 0 1 0.15 0.03)"  >
<path style="stroke: none; stroke-width: 1; stroke-dasharray: none; stroke-linecap: butt; stroke-dashoffset: 0; stroke-linejoin: miter; stroke-miterlimit: 4; fill: rgb(255,255,255); fill-rule: nonzero; opacity: 1; visibility: hidden;" vector-effect="non-scaling-stroke"  transform=" translate(-64.1, -64)" d="M 64.1 0 C 28.8 0 0.2 28.7 0.2 64 C 0.2 99.3 28.8 128 64.1 128 C 99.39999999999999 128 128 99.3 128 64 C 127.9 28.7 99.3 0 64.1 0 z M 64.1 122.7 C 31.7 122.7 5.5 96.4 5.5 64 C 5.5 31.6 31.7 5.299999999999997 64.1 5.299999999999997 C 96.49999999999999 5.299999999999997 122.69999999999999 31.599999999999998 122.69999999999999 64 C 122.6 96.4 96.4 122.7 64.1 122.7 z M 82.7 40 L 77.4 37.3 L 50.8 61.6 L 50.8 37.3 L 45.5 37.3 L 45.5 90.6 L 50.8 90.6 L 50.8 66.4 L 77.4 90.60000000000001 L 82.7 87.00000000000001 L 56.1 64 L 82.7 40 z" stroke-linecap="round" />
</g>
		<g transform="matrix(1 0 0 1 0.15 0.03)"  >
<path style="stroke: none; stroke-width: 1; stroke-dasharray: none; stroke-linecap: butt; stroke-dashoffset: 0; stroke-linejoin: miter; stroke-miterlimit: 4; fill: rgb(255,255,255); fill-rule: nonzero; opacity: 1; visibility: hidden;" vector-effect="non-scaling-stroke"  transform=" translate(-64.1, -64)" d="M 64.1 0 C 28.8 0 0.2 28.7 0.2 64 C 0.2 99.3 28.8 128 64.1 128 C 99.39999999999999 128 128 99.3 128 64 C 127.9 28.7 99.3 0 64.1 0 z M 64.1 122.7 C 31.7 122.7 5.5 96.4 5.5 64 C 5.5 31.6 31.7 5.299999999999997 64.1 5.299999999999997 C 96.49999999999999 5.299999999999997 122.69999999999999 31.599999999999998 122.69999999999999 64 C 122.6 96.4 96.4 122.7 64.1 122.7 z M 77.4 61.6 L 50.8 37.3 L 45.4 41 L 72 64 L 45.4 88 L 50.699999999999996 90.7 L 77.3 66.5 L 77.3 90.7 L 82.6 90.7 L 82.6 37.3 L 77.3 37.3 L 77.3 61.6 z" stroke-linecap="round" />
</g>
		<g transform="matrix(1 0 0 1 0.15 0.03)"  >
<path style="stroke: none; stroke-width: 1; stroke-dasharray: none; stroke-linecap: butt; stroke-dashoffset: 0; stroke-linejoin: miter; stroke-miterlimit: 4; fill: rgb(255,255,255); fill-rule: nonzero; opacity: 1; visibility: hidden;" vector-effect="non-scaling-stroke"  transform=" translate(-64.1, -64)" d="M 88 37.3 L 58.7 64 L 88 90.7 L 93.3 88 L 66.7 64 L 93.30000000000001 41 L 88 37.3 z M 64.1 0 C 28.8 0 0.2 28.7 0.2 64 C 0.2 99.3 28.8 128 64.1 128 C 99.39999999999999 128 128 99.3 128 64 C 127.9 28.7 99.3 0 64.1 0 z M 64.1 122.7 C 31.7 122.7 5.5 96.4 5.5 64 C 5.5 31.6 31.7 5.299999999999997 64.1 5.299999999999997 C 96.39999999999999 5.299999999999997 122.69999999999999 31.599999999999998 122.69999999999999 64 C 122.6 96.4 96.4 122.7 64.1 122.7 z M 66.7 41 L 61.400000000000006 37.4 L 32.1 64 L 61.400000000000006 90.7 L 66.7 88 L 40.1 64 L 66.7 41 z" stroke-linecap="round" />
</g>
		<g transform="matrix(1 0 0 1 0.15 0.03)"  >
<path style="stroke: none; stroke-width: 1; stroke-dasharray: none; stroke-linecap: butt; stroke-dashoffset: 0; stroke-linejoin: miter; stroke-miterlimit: 4; fill: rgb(255,255,255); fill-rule: nonzero; opacity: 1; visibility: hidden;" vector-effect="non-scaling-stroke"  transform=" translate(-64.1, -64)" d="M 42.8 37.3 L 37.4 41 L 64 64 L 37.4 88 L 42.699999999999996 90.7 L 72 64 L 42.8 37.3 z M 64.1 0 C 28.8 0 0.2 28.7 0.2 64 C 0.2 99.3 28.8 128 64.1 128 C 99.39999999999999 128 128 99.3 128 64 C 127.9 28.7 99.3 0 64.1 0 z M 64.1 122.7 C 31.7 122.7 5.5 96.4 5.5 64 C 5.5 31.6 31.7 5.299999999999997 64.1 5.299999999999997 C 96.39999999999999 5.299999999999997 122.69999999999999 31.599999999999998 122.69999999999999 64 C 122.6 96.4 96.4 122.7 64.1 122.7 z M 64.1 41 L 90.69999999999999 64 L 64.1 88 L 69.39999999999999 90.7 L 98.7 64 L 69.4 37.3 L 64.1 41 z" stroke-linecap="round" />
</g>
		<g transform="matrix(1 0 0 1 0.15 0.03)"  >
<path style="stroke: none; stroke-width: 1; stroke-dasharray: none; stroke-linecap: butt; stroke-dashoffset: 0; stroke-linejoin: miter; stroke-miterlimit: 4; fill: rgb(255,255,255); fill-rule: nonzero; opacity: 1; visibility: hidden;" vector-effect="non-scaling-stroke"  transform=" translate(-64.1, -64)" d="M 64.1 0 C 28.8 0 0.2 28.7 0.2 64 C 0.2 99.3 28.8 128 64.1 128 C 99.39999999999999 128 128 99.3 128 64 C 127.9 28.7 99.3 0 64.1 0 z M 64.1 122.7 C 31.7 122.7 5.5 96.4 5.5 64 C 5.5 31.6 31.7 5.299999999999997 64.1 5.299999999999997 C 96.39999999999999 5.299999999999997 122.69999999999999 31.599999999999998 122.69999999999999 64 C 122.6 96.4 96.4 122.7 64.1 122.7 z M 72 37.3 L 42.8 64 L 72 90.7 L 77.3 88 L 52.8 64 L 77.4 41 L 72 37.3 z" stroke-linecap="round" />
</g>
		<g transform="matrix(1 0 0 1 0.15 0.03)"  >
<path style="stroke: none; stroke-width: 1; stroke-dasharray: none; stroke-linecap: butt; stroke-dashoffset: 0; stroke-linejoin: miter; stroke-miterlimit: 4; fill: rgb(255,255,255); fill-rule: nonzero; opacity: 1; visibility: hidden;" vector-effect="non-scaling-stroke"  transform=" translate(-64.1, -64)" d="M 64.1 0 C 28.8 0 0.2 28.7 0.2 64 C 0.2 99.3 28.8 128 64.1 128 C 99.39999999999999 128 128 99.3 128 64 C 127.9 28.7 99.3 0 64.1 0 z M 64.1 122.7 C 31.7 122.7 5.5 96.4 5.5 64 C 5.5 31.6 31.7 5.299999999999997 64.1 5.299999999999997 C 96.39999999999999 5.299999999999997 122.69999999999999 31.599999999999998 122.69999999999999 64 C 122.6 96.4 96.4 122.7 64.1 122.7 z M 50.7 41 L 77.30000000000001 64 L 50.8 88 L 56.099999999999994 90.7 L 85.4 64 L 56.1 37.3 L 50.7 41 z" stroke-linecap="round" />
</g>
		<g transform="matrix(1 0 0 1 0.15 0.03)"  >
<path style="stroke: none; stroke-width: 1; stroke-dasharray: none; stroke-linecap: butt; stroke-dashoffset: 0; stroke-linejoin: miter; stroke-miterlimit: 4; fill: rgb(255,255,255); fill-rule: nonzero; opacity: 1; visibility: hidden;" vector-effect="non-scaling-stroke"  transform=" translate(-64.1, -64)" d="M 64.1 87.9 L 64.1 87.9 L 94.89999999999999 57.2 L 91 53.4 L 66.7 77.7 L 66.7 21.3 L 61.400000000000006 21.3 L 61.400000000000006 77.7 L 37.1 53.4 L 33.300000000000004 57.199999999999996 L 64.1 87.9 L 64.1 87.9 z M 64.1 0 C 28.8 0 0.2 28.7 0.2 64 C 0.2 99.3 28.8 128 64.1 128 C 99.39999999999999 128 128 99.3 128 64 C 127.9 28.7 99.3 0 64.1 0 z M 64.1 122.7 C 31.7 122.7 5.5 96.4 5.5 64 C 5.5 31.6 31.7 5.299999999999997 64.1 5.299999999999997 C 96.49999999999999 5.299999999999997 122.69999999999999 31.599999999999998 122.69999999999999 64 C 122.6 96.4 96.4 122.7 64.1 122.7 z M 29.5 98.7 L 98.7 98.7 L 98.7 93.4 L 29.5 93.4 L 29.5 98.7 z" stroke-linecap="round" />
</g>
		<g transform="matrix(1 0 0 1 0.15 0.03)"  >
<path style="stroke: none; stroke-width: 1; stroke-dasharray: none; stroke-linecap: butt; stroke-dashoffset: 0; stroke-linejoin: miter; stroke-miterlimit: 4; fill: rgb(255,255,255); fill-rule: nonzero; opacity: 1; visibility: hidden;" vector-effect="non-scaling-stroke"  transform=" translate(-64.1, -64)" d="M 66.7 45.3 L 66.7 45.3 L 64.10000000000001 42.699999999999996 L 64.10000000000001 42.699999999999996 L 64.10000000000001 42.699999999999996 L 61.50000000000001 45.3 L 61.50000000000001 45.3 L 61.50000000000001 45.3 L 33.3 73.5 L 37.099999999999994 77.3 L 61.4 53 L 61.4 109.3 L 66.7 109.3 L 66.7 53 L 90.9 77.3 L 94.7 73.5 L 66.7 45.3 L 66.7 45.3 z M 64.1 0 C 28.8 0 0.2 28.7 0.2 64 C 0.2 99.3 28.8 128 64.1 128 C 99.39999999999999 128 128 99.3 128 64 C 127.9 28.7 99.3 0 64.1 0 z M 64.1 122.7 C 31.7 122.7 5.5 96.4 5.5 64 C 5.5 31.6 31.7 5.299999999999997 64.1 5.299999999999997 C 96.49999999999999 5.299999999999997 122.69999999999999 31.599999999999998 122.69999999999999 64 C 122.6 96.4 96.4 122.7 64.1 122.7 z M 29.5 37.3 L 98.7 37.3 L 98.7 32 L 29.5 32 L 29.5 37.3 z" stroke-linecap="round" />
</g>
		<g transform="matrix(1 0 0 1 0.1 0.03)"  >
<path style="stroke: none; stroke-width: 1; stroke-dasharray: none; stroke-linecap: butt; stroke-dashoffset: 0; stroke-linejoin: miter; stroke-miterlimit: 4; fill: rgb(255,255,255); fill-rule: nonzero; opacity: 1; visibility: hidden;" vector-effect="non-scaling-stroke"  transform=" translate(-64.05, -64)" d="M 61.7 9.3 L 61.7 70 L 66.5 70 L 66.5 9.3 L 88.5 31.400000000000002 L 92 27.900000000000002 L 64.2 0 L 64.10000000000001 0.1 L 64 0 L 36.2 27.9 L 39.7 31.4 L 61.7 9.3 z M 83.3 38.6 L 83.3 43.4 L 117.1 43.4 L 117.1 123.1 L 11 123.1 L 11 43.5 L 44.8 43.5 L 44.8 38.7 L 6.2 38.7 L 6.2 128 L 121.9 128 L 121.9 38.6 L 83.3 38.6 z" stroke-linecap="round" />
</g>
		<g transform="matrix(1 0 0 1 0.1 0.03)"  >
<path style="stroke: none; stroke-width: 1; stroke-dasharray: none; stroke-linecap: butt; stroke-dashoffset: 0; stroke-linejoin: miter; stroke-miterlimit: 4; fill: rgb(255,255,255); fill-rule: nonzero; opacity: 1; visibility: hidden;" vector-effect="non-scaling-stroke"  transform=" translate(-64.05, -64)" d="M 87.6 113.4 L 4.7 113.4 L 4.7 14.6 L 87.60000000000001 14.6 L 87.60000000000001 46 L 92.10000000000001 46 L 92.10000000000001 10.1 L 0.2 10.1 L 0.2 117.89999999999999 L 92.10000000000001 117.89999999999999 L 92.10000000000001 82 L 87.60000000000001 82 L 87.60000000000001 113.4 z M 125.4 61.2 L 104.4 38.1 L 101.2 41.300000000000004 L 120.7 61.7 L 63.1 61.7 L 63.1 66.2 L 120.9 66.2 L 101.10000000000001 88.6 L 104.30000000000001 91.8 L 125.50000000000001 66.69999999999999 L 127.90000000000002 63.79999999999999 L 125.4 61.2 z" stroke-linecap="round" />
</g>
		<g transform="matrix(1 0 0 1 0.1 0.03)"  >
<path style="stroke: none; stroke-width: 1; stroke-dasharray: none; stroke-linecap: butt; stroke-dashoffset: 0; stroke-linejoin: miter; stroke-miterlimit: 4; fill: rgb(255,255,255); fill-rule: nonzero; opacity: 1; visibility: hidden;" vector-effect="non-scaling-stroke"  transform=" translate(-64.05, -64)" d="M 61.8 66.2 L 61.8 61.800000000000004 L 8.7 61.800000000000004 L 28.8 41.7 L 25.6 38.5 L 0.2 64 L 0.2 64 L 0.2 64 L 25.599999999999998 89.5 L 28.799999999999997 86.3 L 8.7 66.2 L 61.8 66.2 z M 37.6 11 L 37.6 46.3 L 42 46.3 L 42 15.4 L 123.5 15.4 L 123.5 112.5 L 42 112.5 L 42 81.7 L 37.6 81.7 L 37.6 117 L 127.9 117 L 127.9 11 L 37.6 11 z" stroke-linecap="round" />
</g>
		<g transform="matrix(1 0 0 1 0.15 0.03)"  >
<path style="stroke: none; stroke-width: 1; stroke-dasharray: none; stroke-linecap: butt; stroke-dashoffset: 0; stroke-linejoin: miter; stroke-miterlimit: 4; fill: rgb(255,255,255); fill-rule: nonzero; opacity: 1; visibility: hidden;" vector-effect="non-scaling-stroke"  transform=" translate(-64.1, -64)" d="M 7.3 0 L 7.3 87.7 L 45.199999999999996 87.7 L 45.199999999999996 83 L 12 83 L 12 4.7 L 116.1 4.7 L 116.1 83 L 83 83 L 83 87.7 L 120.9 87.7 L 120.9 0 L 7.3 0 z M 66.4 118.9 L 66.4 56.900000000000006 L 61.7 56.900000000000006 L 61.7 118.9 L 40.1 97.2 L 36.7 100.60000000000001 L 64 128 L 64.1 127.9 L 64.19999999999999 128 L 91.49999999999999 100.6 L 88 97.2 L 66.4 118.9 z" stroke-linecap="round" />
</g>
		<g transform="matrix(1 0 0 1 0.14 -0.03)"  >
<path style="stroke: none; stroke-width: 1; stroke-dasharray: none; stroke-linecap: butt; stroke-dashoffset: 0; stroke-linejoin: miter; stroke-miterlimit: 4; fill: rgb(255,255,255); fill-rule: nonzero; opacity: 1; visibility: hidden;" vector-effect="non-scaling-stroke"  transform=" translate(-64.09, -63.95)" d="M 90.4 33.8 L 44.400000000000006 79.9 L 44.400000000000006 45 L 39 45 L 39 88.5 L 39.5 88.5 L 44.5 88.5 L 82.9 88.5 L 82.9 83.1 L 48.8 83.1 L 94.19999999999999 37.599999999999994 L 90.4 33.8 z M 109.2 18.7 C 84.30000000000001 -6.300000000000001 43.8 -6.300000000000001 18.900000000000006 18.7 C -5.999999999999993 43.7 -5.999999999999993 84.2 18.900000000000006 109.2 C 43.800000000000004 134.2 84.30000000000001 134.2 109.2 109.2 C 134.2 84.3 134.2 43.7 109.2 18.7 z M 105.5 105.5 C 82.6 128.4 45.6 128.4 22.700000000000003 105.5 C -0.19999999999999574 82.6 -0.19999999999999574 45.4 22.700000000000003 22.5 C 45.6 -0.3999999999999986 82.6 -0.3999999999999986 105.5 22.5 C 128.3 45.4 128.3 82.6 105.5 105.5 z" stroke-linecap="round" />
</g>
		<g transform="matrix(1 0 0 1 0.14 -0.03)"  >
<path style="stroke: none; stroke-width: 1; stroke-dasharray: none; stroke-linecap: butt; stroke-dashoffset: 0; stroke-linejoin: miter; stroke-miterlimit: 4; fill: rgb(255,255,255); fill-rule: nonzero; opacity: 1; visibility: hidden;" vector-effect="non-scaling-stroke"  transform=" translate(-64.09, -63.95)" d="M 83.1 79.3 L 37.7 33.8 L 34 37.6 L 79.4 83.1 L 45.1 83.1 L 45.1 88.5 L 83.1 88.5 L 88.5 88.5 L 88.5 83.1 L 88.5 45 L 83.1 45 L 83.1 79.3 z M 109.2 18.7 C 84.30000000000001 -6.300000000000001 43.8 -6.300000000000001 18.900000000000006 18.7 C -5.999999999999993 43.7 -5.999999999999993 84.2 18.900000000000006 109.2 C 43.800000000000004 134.2 84.30000000000001 134.2 109.2 109.2 C 134.2 84.3 134.2 43.7 109.2 18.7 z M 105.5 105.5 C 82.6 128.4 45.6 128.4 22.700000000000003 105.5 C -0.19999999999999574 82.6 -0.19999999999999574 45.4 22.700000000000003 22.5 C 45.6 -0.3999999999999986 82.6 -0.3999999999999986 105.5 22.5 C 128.3 45.4 128.3 82.6 105.5 105.5 z" stroke-linecap="round" />
</g>
		<g transform="matrix(1 0 0 1 0.14 -0.03)"  >
<path style="stroke: none; stroke-width: 1; stroke-dasharray: none; stroke-linecap: butt; stroke-dashoffset: 0; stroke-linejoin: miter; stroke-miterlimit: 4; fill: rgb(255,255,255); fill-rule: nonzero; opacity: 1; visibility: hidden;" vector-effect="non-scaling-stroke"  transform=" translate(-64.09, -63.95)" d="M 109.2 18.7 C 84.30000000000001 -6.300000000000001 43.8 -6.300000000000001 18.900000000000006 18.7 C -5.999999999999993 43.7 -5.999999999999993 84.2 18.900000000000006 109.2 C 43.800000000000004 134.2 84.30000000000001 134.2 109.2 109.2 C 134.2 84.3 134.2 43.7 109.2 18.7 z M 105.5 105.5 C 82.6 128.4 45.6 128.4 22.700000000000003 105.5 C -0.19999999999999574 82.6 -0.19999999999999574 45.4 22.700000000000003 22.5 C 45.6 -0.3999999999999986 82.6 -0.3999999999999986 105.5 22.5 C 128.3 45.4 128.3 82.6 105.5 105.5 z M 83 44.9 L 83 39.5 L 45 39.5 L 39.6 39.5 L 39.6 44.9 L 39.6 83 L 45 83 L 45 48.7 L 90.4 94.2 L 94.2 90.4 L 48.8 44.9 L 83 44.9 z" stroke-linecap="round" />
</g>
		<g transform="matrix(1 0 0 1 0.14 -0.03)"  >
<path style="stroke: none; stroke-width: 1; stroke-dasharray: none; stroke-linecap: butt; stroke-dashoffset: 0; stroke-linejoin: miter; stroke-miterlimit: 4; fill: rgb(255,255,255); fill-rule: nonzero; opacity: 1; visibility: hidden;" vector-effect="non-scaling-stroke"  transform=" translate(-64.09, -63.95)" d="M 109.2 18.7 C 84.30000000000001 -6.300000000000001 43.8 -6.300000000000001 18.900000000000006 18.7 C -5.999999999999993 43.7 -5.999999999999993 84.2 18.900000000000006 109.2 C 43.800000000000004 134.2 84.30000000000001 134.2 109.2 109.2 C 134.2 84.3 134.2 43.7 109.2 18.7 z M 105.5 105.5 C 82.6 128.4 45.6 128.4 22.700000000000003 105.5 C -0.19999999999999574 82.6 -0.19999999999999574 45.4 22.700000000000003 22.5 C 45.6 -0.3999999999999986 82.6 -0.3999999999999986 105.5 22.5 C 128.3 45.4 128.3 82.6 105.5 105.5 z M 45.1 39.5 L 45.1 44.9 L 79.30000000000001 44.9 L 34 90.4 L 37.8 94.2 L 83.19999999999999 48.7 L 83.19999999999999 83 L 88.6 83 L 88.6 44.9 L 88.6 39.5 L 83.19999999999999 39.5 L 45.1 39.5 z" stroke-linecap="round" />
</g>
		<g transform="matrix(1 0 0 1 0.15 0.03)"  >
<path style="stroke: none; stroke-width: 1; stroke-dasharray: none; stroke-linecap: butt; stroke-dashoffset: 0; stroke-linejoin: miter; stroke-miterlimit: 4; fill: rgb(255,255,255); fill-rule: nonzero; opacity: 1; visibility: hidden;" vector-effect="non-scaling-stroke"  transform=" translate(-64.1, -64)" d="M 64.1 0 C 28.8 0 0.2 28.7 0.2 64 C 0.2 99.3 28.8 128 64.1 128 C 99.39999999999999 128 128 99.3 128 64 C 127.9 28.7 99.3 0 64.1 0 z M 64.1 122.7 C 31.7 122.7 5.5 96.4 5.5 64 C 5.5 31.6 31.7 5.299999999999997 64.1 5.299999999999997 C 96.39999999999999 5.299999999999997 122.69999999999999 31.599999999999998 122.69999999999999 64 C 122.6 96.4 96.4 122.7 64.1 122.7 z M 63.8 28.8 L 63.8 28.8 L 33.1 59.5 L 36.9 63.3 L 61.4 38.8 L 61.4 104 L 66.7 104 L 66.7 39.4 L 90.7 63.4 L 94.5 59.6 L 63.8 28.8 L 63.8 28.8 z" stroke-linecap="round" />
</g>
		<g transform="matrix(1 0 0 1 0.15 0.03)"  >
<path style="stroke: none; stroke-width: 1; stroke-dasharray: none; stroke-linecap: butt; stroke-dashoffset: 0; stroke-linejoin: miter; stroke-miterlimit: 4; fill: rgb(255,255,255); fill-rule: nonzero; opacity: 1; visibility: hidden;" vector-effect="non-scaling-stroke"  transform=" translate(-64.1, -64)" d="M 68.4 33.5 L 64.60000000000001 37.3 L 89.2 62 L 24.1 62 L 24.1 67.3 L 88.4 67.3 L 64.6 91.3 L 68.39999999999999 95.1 L 99.1 64.3 L 99 64.2 L 99.1 64.10000000000001 L 68.4 33.5 z M 64.1 0 C 28.8 0 0.2 28.7 0.2 64 C 0.2 99.3 28.8 128 64.1 128 C 99.39999999999999 128 128 99.3 128 64 C 127.9 28.7 99.3 0 64.1 0 z M 64.1 122.7 C 31.7 122.7 5.5 96.4 5.5 64 C 5.5 31.6 31.7 5.299999999999997 64.1 5.299999999999997 C 96.39999999999999 5.299999999999997 122.69999999999999 31.599999999999998 122.69999999999999 64 C 122.6 96.4 96.4 122.7 64.1 122.7 z" stroke-linecap="round" />
</g>
		<g transform="matrix(1 0 0 1 0.15 0.03)"  >
<path style="stroke: none; stroke-width: 1; stroke-dasharray: none; stroke-linecap: butt; stroke-dashoffset: 0; stroke-linejoin: miter; stroke-miterlimit: 4; fill: rgb(255,255,255); fill-rule: nonzero; opacity: 1; visibility: hidden;" vector-effect="non-scaling-stroke"  transform=" translate(-64.1, -64)" d="M 64 37 L 60.2 33.2 L 29.5 64 L 29.5 64 L 29.5 64 L 60.2 94.8 L 64 91 L 39.8 66.7 L 104 66.7 L 104 61.400000000000006 L 39.8 61.400000000000006 L 64 37 z M 64.1 0 C 28.8 0 0.2 28.7 0.2 64 C 0.2 99.3 28.8 128 64.1 128 C 99.39999999999999 128 128 99.3 128 64 C 127.9 28.7 99.3 0 64.1 0 z M 64.1 122.7 C 31.7 122.7 5.5 96.4 5.5 64 C 5.5 31.6 31.7 5.299999999999997 64.1 5.299999999999997 C 96.49999999999999 5.299999999999997 122.69999999999999 31.599999999999998 122.69999999999999 64 C 122.6 96.4 96.4 122.7 64.1 122.7 z" stroke-linecap="round" />
</g>
		<g transform="matrix(1 0 0 1 0.15 0.03)"  >
<path style="stroke: none; stroke-width: 1; stroke-dasharray: none; stroke-linecap: butt; stroke-dashoffset: 0; stroke-linejoin: miter; stroke-miterlimit: 4; fill: rgb(255,255,255); fill-rule: nonzero; opacity: 1; visibility: hidden;" vector-effect="non-scaling-stroke"  transform=" translate(-64.1, -64)" d="M 64.1 0 C 28.8 0 0.2 28.7 0.2 64 C 0.2 99.3 28.8 128 64.1 128 C 99.39999999999999 128 128 99.3 128 64 C 127.9 28.7 99.3 0 64.1 0 z M 64.1 122.7 C 31.7 122.7 5.5 96.4 5.5 64 C 5.5 31.6 31.7 5.299999999999997 64.1 5.299999999999997 C 96.49999999999999 5.299999999999997 122.69999999999999 31.599999999999998 122.69999999999999 64 C 122.6 96.4 96.4 122.7 64.1 122.7 z M 66.7 88.5 L 66.7 24 L 61.400000000000006 24 L 61.400000000000006 88.5 L 37.1 64.2 L 33.300000000000004 68 L 64 98.8 L 64.1 98.7 L 64.19999999999999 98.8 L 94.89999999999999 68 L 91 64.2 L 66.7 88.5 z" stroke-linecap="round" />
</g>
</g>
</g>
<g transform="matrix(0.03 0 0 0.03 101.48 99.85)" style="" id="b2ed94cc-e30a-47cd-80e2-9594c19ebc08"  >
		<text xml:space="preserve" font-family="Alegreya" font-size="80" font-style="normal" font-weight="700" style="stroke: none; stroke-width: 1; stroke-dasharray: none; stroke-linecap: butt; stroke-dashoffset: 0; stroke-linejoin: miter; stroke-miterlimit: 4; fill: rgb(255,255,255); fill-rule: nonzero; opacity: 1; white-space: pre;" ><tspan x="-214.28" y="-20.07" style="white-space: pre; ">Click here to </tspan><tspan x="-222.08" y="70.33" >download CV</tspan></text>
</g>
</svg>